<?xml version="1.0" standalone="no"?>
<!DOCTYPE svg PUBLIC "-//W3C//DTD SVG 20010904//EN"
 "http://www.w3.org/TR/2001/REC-SVG-20010904/DTD/svg10.dtd">
<svg version="1.0" xmlns="http://www.w3.org/2000/svg"
 width="1064.000000pt" height="1064.000000pt" viewBox="0 0 1064.000000 1064.000000"
 preserveAspectRatio="xMidYMid meet">

<g transform="translate(0.000000,1064.000000) scale(0.100000,-0.100000)"
fill="#000000" stroke="none">
<path d="M5225 10490 c-22 -5 -132 -12 -245 -16 -113 -4 -210 -11 -217 -16
-13 -11 -214 -38 -278 -38 -23 0 -45 -4 -50 -8 -13 -11 -105 -30 -179 -37 -33
-3 -63 -9 -66 -15 -4 -6 -33 -15 -66 -21 -32 -7 -64 -13 -71 -15 -9 -2 -9 -14
2 -51 9 -26 22 -77 31 -113 26 -106 37 -144 45 -155 4 -5 10 -28 14 -50 3 -22
15 -67 25 -100 11 -33 27 -95 36 -138 10 -43 21 -80 26 -83 4 -3 8 -18 8 -33
0 -15 11 -60 25 -99 14 -39 25 -83 25 -96 0 -13 9 -45 19 -70 11 -25 24 -67
30 -93 22 -106 54 -220 72 -256 10 -22 19 -50 19 -64 0 -24 2 -25 53 -20 94 9
207 26 219 33 23 14 95 24 238 33 80 5 158 14 173 20 35 14 390 13 502 0 44
-5 127 -14 185 -19 58 -5 125 -14 150 -21 25 -6 88 -17 140 -26 52 -8 105 -21
117 -29 39 -25 53 -18 53 24 0 21 3 42 7 46 10 9 43 117 43 139 0 10 11 52 25
93 14 41 25 82 25 92 0 9 9 42 20 72 11 30 20 65 20 79 0 13 11 55 25 93 14
38 25 81 25 96 0 15 12 61 25 102 14 41 25 84 25 96 0 12 8 42 19 66 10 24 21
64 25 89 4 26 16 71 26 100 11 30 20 63 20 74 0 24 33 131 43 141 17 17 4 32
-30 39 -21 3 -58 15 -82 26 -25 11 -66 19 -98 19 -29 0 -79 9 -111 19 -33 11
-130 26 -232 36 -96 9 -184 20 -195 25 -43 18 -597 43 -660 30z"/>
<path d="M6716 10278 c-17 -38 -66 -220 -66 -243 0 -8 -4 -23 -9 -33 -16 -34
-41 -120 -41 -145 0 -14 -4 -29 -10 -32 -5 -3 -10 -24 -10 -45 0 -21 -4 -41
-9 -44 -4 -3 -11 -20 -15 -38 -3 -18 -13 -58 -22 -88 -9 -30 -20 -71 -24 -90
-4 -19 -20 -80 -35 -135 -15 -55 -31 -116 -35 -135 -5 -19 -18 -71 -30 -115
-11 -44 -26 -98 -32 -120 -6 -22 -17 -61 -26 -86 -17 -53 -12 -79 18 -79 11 0
28 -4 38 -9 9 -5 44 -17 77 -27 33 -9 64 -21 69 -26 6 -4 19 -8 31 -8 12 0 25
-4 31 -8 5 -4 27 -14 49 -21 45 -15 158 -63 285 -122 103 -48 107 -51 275
-145 22 -13 54 -30 72 -39 18 -9 37 -23 44 -31 6 -8 15 -14 19 -14 24 0 290
-194 395 -290 186 -167 198 -176 207 -151 2 6 174 184 384 398 540 551 629
642 633 654 8 26 -366 350 -599 518 -74 54 -256 175 -295 196 -11 6 -39 24
-63 39 -74 46 -183 106 -327 179 -149 75 -221 108 -345 157 -179 71 -223 88
-275 105 -27 9 -55 21 -62 27 -7 5 -16 7 -21 4 -5 -3 -21 2 -36 10 -16 7 -44
14 -62 14 -19 0 -34 5 -34 10 0 6 -8 10 -19 10 -10 0 -35 7 -54 15 -50 21 -55
19 -71 -17z"/>
<path d="M3858 10270 c-1 -5 -32 -16 -68 -25 -36 -9 -76 -22 -90 -29 -14 -8
-41 -17 -60 -21 -19 -4 -66 -22 -105 -41 -69 -32 -156 -64 -176 -64 -6 0 -17
-7 -25 -15 -9 -8 -27 -17 -42 -20 -28 -6 -116 -49 -142 -70 -8 -6 -35 -17 -60
-24 -25 -7 -54 -21 -65 -31 -11 -10 -31 -21 -45 -25 -14 -4 -31 -13 -39 -19
-16 -13 -81 -48 -133 -72 -21 -9 -38 -20 -38 -24 0 -4 -17 -15 -38 -23 -21 -8
-44 -22 -51 -31 -8 -9 -19 -16 -26 -16 -8 0 -26 -11 -42 -24 -15 -13 -38 -26
-50 -30 -13 -4 -23 -12 -23 -17 0 -6 -16 -17 -35 -25 -19 -8 -35 -19 -35 -25
0 -5 -15 -16 -33 -24 -19 -8 -39 -21 -47 -29 -7 -9 -17 -16 -22 -16 -5 0 -37
-22 -71 -50 -34 -27 -75 -60 -90 -72 -15 -13 -38 -33 -51 -45 -13 -13 -28 -23
-33 -23 -5 0 -19 -11 -31 -25 -12 -14 -26 -25 -32 -25 -5 0 -28 -20 -51 -45
-23 -25 -46 -45 -51 -45 -5 0 -33 -24 -62 -52 -30 -29 -80 -77 -111 -107 l-57
-53 29 -30 c29 -31 123 -124 146 -144 6 -6 38 -37 69 -70 31 -32 62 -64 70
-71 7 -7 18 -18 25 -25 7 -7 18 -18 25 -25 7 -7 18 -18 24 -25 6 -7 26 -27 45
-45 19 -18 40 -38 46 -45 7 -7 17 -17 23 -23 6 -5 60 -59 120 -120 60 -60 114
-114 120 -120 6 -5 69 -70 140 -143 163 -167 168 -169 257 -85 34 32 85 78
113 103 28 25 60 55 72 68 12 12 26 22 31 22 5 0 32 20 61 44 28 25 63 50 76
56 14 5 45 26 70 45 25 19 52 38 60 42 8 3 28 17 43 30 16 13 33 23 39 23 5 0
23 11 40 25 16 14 38 25 49 25 11 0 22 6 25 14 3 8 22 22 42 31 20 9 69 33
107 55 39 21 79 39 90 39 11 1 26 10 33 21 7 11 21 20 32 20 10 0 40 11 66 25
26 14 59 25 73 25 14 0 44 12 66 25 22 14 52 25 67 25 15 0 48 11 74 25 26 14
62 25 80 25 70 0 77 48 28 197 -13 39 -24 80 -24 91 0 10 -11 50 -25 88 -14
38 -25 78 -25 89 0 11 -12 54 -25 95 -14 41 -25 84 -25 96 0 12 -8 42 -18 66
-11 24 -22 64 -25 89 -3 25 -15 67 -27 93 -11 26 -20 60 -20 74 0 15 -11 59
-25 97 -13 39 -25 79 -25 90 0 11 -9 44 -19 73 -11 28 -22 71 -26 94 -4 24
-16 60 -28 81 -19 34 -24 37 -63 37 -23 0 -44 -4 -46 -10z"/>
<path d="M8982 8891 c-26 -27 -59 -61 -73 -77 -14 -16 -38 -37 -53 -47 -15
-11 -31 -30 -36 -43 -5 -13 -14 -24 -20 -24 -6 0 -50 -41 -98 -91 -48 -51
-221 -227 -384 -393 -194 -196 -298 -308 -298 -321 0 -12 17 -39 38 -62 20
-23 51 -58 67 -78 17 -21 48 -58 70 -84 79 -90 135 -159 135 -166 0 -10 79
-121 113 -158 15 -16 27 -34 27 -40 0 -14 108 -193 125 -207 8 -7 15 -21 15
-32 0 -11 11 -33 25 -50 14 -16 25 -37 25 -46 0 -9 10 -35 23 -57 12 -22 29
-59 36 -82 8 -23 20 -44 27 -47 8 -3 14 -15 14 -26 0 -12 9 -40 20 -62 11 -23
20 -47 20 -54 0 -7 11 -39 24 -71 30 -71 76 -215 76 -235 0 -27 29 -44 51 -30
10 7 30 12 45 12 14 0 35 5 47 12 20 11 45 17 122 33 17 4 39 10 50 15 11 4
47 14 80 20 33 7 69 18 80 25 11 7 38 15 60 18 65 9 124 24 137 34 7 6 27 13
43 16 46 9 105 24 165 42 30 10 72 20 93 22 20 3 40 9 43 14 3 5 16 9 30 9 14
0 35 5 47 12 12 6 39 15 60 20 20 4 54 12 75 18 20 5 56 13 79 18 24 5 49 15
57 21 8 6 18 11 22 10 44 -8 96 23 75 44 -6 6 -11 21 -11 34 0 12 -4 32 -9 45
-5 13 -21 61 -36 108 -15 47 -33 99 -40 115 -19 45 -31 76 -45 120 -7 22 -24
65 -37 95 -14 30 -28 64 -33 75 -30 76 -141 310 -167 355 -18 30 -33 58 -33
61 0 10 -111 205 -170 299 -90 144 -254 382 -309 447 -10 12 -33 41 -52 65
-132 169 -345 398 -370 398 -11 0 -41 -22 -67 -49z"/>
<path d="M1614 8855 c-29 -30 -54 -61 -58 -70 -3 -8 -10 -15 -16 -15 -6 0 -15
-11 -20 -25 -5 -14 -16 -25 -25 -25 -8 0 -15 -5 -15 -11 0 -6 -18 -29 -40 -51
-22 -22 -40 -45 -40 -51 0 -5 -10 -19 -22 -31 -34 -33 -98 -107 -98 -113 0 -3
-16 -25 -35 -49 -19 -23 -35 -49 -35 -58 0 -9 -7 -16 -15 -16 -9 0 -15 -9 -15
-21 0 -12 -8 -23 -20 -26 -10 -3 -22 -14 -25 -24 -4 -10 -10 -19 -15 -19 -4 0
-11 -11 -14 -25 -4 -14 -11 -25 -16 -25 -6 0 -10 -6 -10 -13 0 -8 -9 -22 -20
-32 -11 -10 -20 -24 -20 -30 0 -7 -7 -18 -15 -25 -8 -7 -13 -15 -10 -19 2 -4
-4 -14 -13 -23 -25 -22 -49 -59 -92 -143 -12 -22 -30 -53 -40 -70 -11 -16 -24
-39 -29 -50 -5 -12 -16 -27 -25 -34 -9 -7 -16 -18 -16 -23 0 -8 -45 -104 -85
-178 -7 -14 -22 -45 -33 -70 -11 -25 -31 -70 -45 -100 -58 -128 -117 -274
-117 -290 0 -6 -9 -29 -19 -53 -11 -23 -27 -69 -37 -102 -9 -33 -21 -65 -25
-70 -5 -6 -11 -30 -15 -53 -4 -23 -10 -42 -14 -42 -4 0 -10 -17 -13 -37 -3
-21 -8 -48 -12 -60 -6 -20 -4 -23 19 -23 15 0 61 -11 104 -24 42 -13 104 -31
137 -39 113 -27 220 -59 230 -66 5 -5 38 -11 73 -14 37 -3 77 -14 98 -26 19
-12 52 -21 73 -21 20 0 42 -5 47 -10 13 -13 102 -35 174 -44 30 -4 64 -13 75
-20 11 -7 39 -15 63 -19 23 -3 66 -14 95 -25 57 -22 155 -42 206 -42 36 0 48
20 71 120 7 30 23 77 36 103 13 27 24 56 24 65 0 10 11 39 25 66 14 27 25 53
25 58 0 5 9 28 21 51 11 23 23 56 26 72 2 17 13 37 23 45 10 8 22 29 26 45 4
17 12 37 19 45 6 8 18 31 25 50 7 19 21 44 31 55 10 11 21 32 24 47 4 14 15
34 26 44 10 9 19 22 19 28 0 6 14 29 30 50 17 22 30 46 30 53 0 7 4 13 9 13 5
0 19 19 31 43 12 23 25 44 29 47 4 3 20 26 35 53 15 26 32 47 37 47 5 0 9 6 9
13 0 7 18 32 40 55 22 22 40 45 40 50 0 4 18 27 40 50 22 22 40 46 40 51 0 5
9 13 20 16 11 3 20 11 20 16 0 6 16 26 35 46 19 20 35 42 35 49 0 27 -20 64
-35 64 -8 0 -15 7 -15 15 0 9 -11 21 -25 27 -14 6 -25 17 -25 24 0 7 -9 18
-19 24 -11 5 -23 19 -26 30 -3 11 -11 20 -17 20 -5 0 -31 23 -57 50 -26 28
-52 50 -59 50 -7 0 -12 5 -12 10 0 14 -64 80 -77 80 -5 0 -15 11 -21 25 -6 14
-18 25 -27 25 -8 0 -15 7 -15 15 0 8 -11 22 -25 31 -14 9 -25 22 -25 29 0 7
-9 15 -20 18 -11 3 -20 12 -20 19 0 8 -11 20 -25 26 -14 6 -25 18 -25 27 0 8
-4 15 -10 15 -11 0 -130 119 -130 130 0 4 -11 12 -25 18 -14 6 -25 18 -25 27
0 8 -4 15 -10 15 -13 0 -130 117 -130 130 0 5 -4 10 -9 10 -14 0 -76 62 -84
83 -9 25 -17 21 -73 -38z m51 -105 c-19 -21 -37 -18 -28 5 3 8 14 15 26 15 19
0 19 -1 2 -20z m-157 -127 c-3 -19 -48 -32 -48 -14 0 10 28 30 43 31 5 0 7 -8
5 -17z m-138 -139 c0 -8 -6 -14 -14 -14 -7 0 -20 -10 -29 -22 -8 -13 -18 -20
-21 -17 -10 9 5 39 19 39 7 0 15 9 18 21 6 23 27 17 27 -7z m805 -1254 c-3 -5
-12 -10 -18 -10 -7 0 -6 4 3 10 19 12 23 12 15 0z m-1712 -538 c-23 -6 -42 17
-23 28 9 6 18 3 26 -8 10 -14 10 -18 -3 -20z"/>
<path d="M10350 6608 c-55 -22 -67 -26 -120 -37 -30 -6 -73 -16 -95 -22 -22
-6 -57 -13 -78 -16 -20 -3 -40 -9 -43 -14 -3 -5 -20 -9 -38 -9 -19 0 -39 -6
-45 -14 -7 -8 -28 -16 -49 -19 -63 -9 -126 -24 -152 -34 -14 -6 -44 -16 -67
-22 -24 -6 -62 -16 -85 -22 -24 -6 -60 -17 -82 -25 -21 -7 -43 -11 -47 -8 -5
3 -18 0 -30 -6 -21 -12 -120 -40 -154 -44 -11 -2 -30 -8 -42 -14 -12 -7 -33
-12 -47 -12 -14 0 -28 -4 -31 -10 -3 -5 -21 -10 -40 -10 -19 0 -37 -4 -40 -10
-3 -5 -18 -10 -33 -10 -54 0 -114 -55 -82 -75 6 -3 10 -25 10 -49 0 -23 6 -48
12 -54 7 -7 16 -41 20 -75 13 -117 21 -162 31 -175 6 -7 15 -132 21 -285 11
-275 6 -534 -15 -657 -12 -74 -25 -176 -35 -270 -3 -36 -12 -72 -19 -80 -7 -8
-15 -42 -19 -76 -8 -70 -2 -78 57 -89 20 -4 40 -11 43 -16 3 -5 17 -9 32 -9
34 -1 110 -21 139 -38 12 -6 31 -12 42 -12 28 0 109 -20 146 -36 17 -7 62 -18
100 -24 39 -7 75 -16 80 -20 6 -4 42 -13 80 -20 39 -6 84 -18 100 -25 30 -13
52 -19 132 -34 23 -4 48 -12 55 -18 7 -6 29 -13 48 -16 60 -9 94 -18 125 -32
17 -7 62 -19 100 -25 39 -7 75 -16 80 -20 6 -4 25 -10 43 -12 38 -5 47 6 62
79 5 27 17 77 25 113 21 84 36 174 70 400 30 207 40 378 39 710 0 303 -12 551
-28 590 -3 8 -8 44 -10 80 -2 36 -9 94 -15 130 -7 36 -17 90 -22 120 -6 30
-17 82 -24 115 -8 33 -19 85 -26 115 -20 94 -33 141 -44 150 -5 4 -21 3 -35
-2z"/>
<path d="M8925 4243 c-6 -35 -16 -65 -35 -103 -4 -9 -11 -31 -15 -50 -7 -32
-11 -41 -35 -90 -5 -11 -10 -31 -10 -45 0 -13 -11 -44 -24 -68 -13 -23 -28
-60 -31 -81 -4 -21 -14 -40 -21 -43 -8 -3 -14 -13 -14 -23 0 -11 -4 -22 -10
-25 -5 -3 -10 -15 -10 -25 0 -10 -4 -20 -9 -22 -5 -1 -30 -45 -56 -96 -26 -51
-52 -95 -56 -98 -5 -3 -9 -12 -9 -21 0 -9 -11 -31 -25 -49 -14 -18 -25 -40
-25 -48 0 -9 -4 -16 -9 -16 -9 0 -28 -29 -50 -77 -6 -13 -15 -23 -21 -23 -5 0
-10 -4 -10 -10 0 -5 -19 -37 -42 -70 -24 -34 -47 -68 -53 -78 -5 -9 -16 -22
-22 -30 -7 -7 -13 -17 -13 -22 0 -5 -10 -20 -22 -33 -38 -39 -90 -99 -141
-162 -27 -33 -56 -64 -66 -68 -9 -4 -22 -21 -29 -36 -11 -26 -10 -31 15 -60
15 -17 33 -31 40 -31 7 0 13 -4 13 -9 0 -15 114 -131 128 -131 7 0 12 -5 12
-11 0 -13 166 -179 180 -179 6 0 10 -5 10 -12 0 -6 29 -40 65 -75 36 -35 65
-67 65 -73 0 -5 9 -14 20 -20 11 -6 35 -27 53 -46 17 -20 38 -41 45 -47 8 -7
24 -21 35 -33 12 -12 32 -24 45 -28 12 -4 22 -14 22 -22 0 -8 16 -30 35 -50
19 -19 35 -39 35 -45 0 -5 8 -13 18 -16 20 -8 72 -61 72 -74 0 -5 8 -13 18
-16 9 -4 31 -22 48 -40 17 -18 36 -33 42 -33 18 0 206 197 240 251 11 19 30
40 41 47 12 7 21 18 21 26 0 8 7 16 15 19 8 3 23 26 34 51 12 24 30 47 41 51
11 3 20 13 20 21 0 8 7 17 15 20 8 4 15 10 15 16 0 5 23 37 50 71 28 34 50 69
50 79 0 9 9 20 20 23 11 3 20 10 20 14 0 5 25 46 56 92 31 46 65 104 76 129
12 25 29 51 39 58 10 7 21 28 25 47 3 20 11 39 18 43 6 4 19 23 30 42 10 19
28 53 40 75 12 22 28 51 36 65 7 14 17 32 21 40 5 8 15 29 23 45 7 17 21 46
30 65 9 19 20 42 25 50 5 8 14 26 19 40 6 14 27 60 47 103 19 43 35 86 35 94
0 9 6 24 13 32 8 9 33 75 57 146 23 72 46 135 50 140 5 6 13 33 18 60 6 28 19
74 31 104 11 30 18 57 16 61 -3 4 -17 11 -32 15 -15 3 -31 11 -34 17 -3 5 -41
14 -84 19 -43 6 -83 16 -89 23 -6 8 -35 16 -65 19 -29 4 -71 16 -93 27 -21 11
-52 20 -69 20 -43 0 -121 20 -140 36 -8 8 -33 14 -55 14 -47 0 -105 15 -114
30 -4 6 -31 15 -61 20 -95 16 -119 22 -125 31 -3 5 -20 9 -39 9 -52 0 -132 20
-146 36 -7 8 -30 14 -58 14 -28 0 -67 10 -99 25 -30 14 -71 25 -93 25 -36 0
-38 -2 -44 -37z m-94 -410 c-8 -15 -10 -15 -11 -2 0 17 10 32 18 25 2 -3 -1
-13 -7 -23z m-585 -971 c-18 -16 -18 -16 -6 6 6 13 14 21 18 18 3 -4 -2 -14
-12 -24z"/>
<path d="M7860 2549 c-169 -160 -433 -355 -605 -448 -22 -12 -56 -31 -75 -43
-38 -23 -243 -125 -330 -165 -30 -14 -63 -29 -72 -34 -10 -5 -26 -9 -36 -9
-10 0 -22 -4 -27 -9 -10 -9 -105 -46 -160 -61 -45 -13 -104 -35 -111 -43 -4
-4 -21 -7 -37 -7 -23 0 -28 -4 -24 -17 3 -10 13 -49 22 -88 10 -38 21 -77 25
-86 4 -8 15 -49 25 -90 9 -40 21 -83 25 -94 5 -11 14 -45 20 -75 6 -30 20 -82
32 -115 11 -33 23 -76 25 -95 3 -19 11 -48 18 -65 7 -16 19 -59 26 -95 6 -36
15 -69 19 -75 4 -5 12 -37 20 -70 7 -33 23 -93 36 -134 13 -40 24 -84 24 -98
0 -13 6 -36 14 -51 7 -15 19 -54 26 -87 17 -82 32 -115 52 -115 9 0 19 4 22 8
3 5 36 17 73 26 37 10 77 21 88 26 11 5 58 21 105 36 47 14 89 30 95 35 5 5
17 9 27 9 10 0 41 11 68 25 27 14 54 25 59 25 6 0 36 12 68 26 32 14 67 29 78
34 62 26 355 173 385 192 19 12 51 30 70 40 72 38 100 54 117 65 51 36 94 63
98 63 3 0 36 22 75 50 39 27 72 50 75 50 4 0 118 84 270 199 136 103 385 329
385 350 0 8 7 23 16 32 15 17 15 20 0 44 -9 14 -23 25 -31 25 -9 0 -20 11 -25
25 -5 14 -16 25 -25 25 -8 0 -15 7 -15 15 0 9 -11 20 -24 26 -13 6 -27 20 -29
31 -3 11 -15 22 -26 25 -12 3 -21 14 -21 23 0 10 -9 21 -19 25 -11 3 -23 15
-26 26 -4 10 -14 19 -24 19 -10 0 -23 11 -29 25 -6 14 -18 25 -27 25 -8 0 -15
8 -15 18 0 11 -11 24 -25 30 -14 6 -25 18 -25 27 0 8 -9 15 -20 15 -11 0 -20
7 -20 15 0 8 -11 22 -24 30 -13 9 -26 25 -29 35 -3 11 -12 20 -21 20 -9 0 -16
7 -16 15 0 9 -11 21 -25 27 -14 6 -25 15 -25 19 0 15 -68 79 -84 79 -9 0 -16
7 -16 15 0 28 -42 75 -67 75 -13 0 -23 6 -23 13 0 17 -64 87 -79 87 -6 0 -11
6 -11 13 0 18 -129 139 -141 131 -5 -3 -9 4 -9 15 0 35 -22 23 -110 -60z"/>
<path d="M2686 2488 c-99 -104 -117 -128 -98 -128 8 0 27 18 82 78 29 32 78
58 88 47 3 -3 0 -5 -6 -5 -20 0 -13 -20 11 -30 12 -6 30 -16 40 -22 13 -10 21
-10 35 -2 22 15 23 50 0 46 -19 -3 -68 42 -68 63 0 8 9 19 19 25 27 14 31 13
28 -7 -3 -23 17 -33 21 -11 3 14 -29 58 -42 58 -2 0 -52 -50 -110 -112z"/>
<path d="M2890 2508 c0 -9 5 -20 10 -23 13 -8 13 5 0 25 -8 13 -10 13 -10 -2z"/>
<path d="M2942 2450 c0 -14 2 -19 5 -12 2 6 2 18 0 25 -3 6 -5 1 -5 -13z"/>
<path d="M2708 2423 c7 -3 16 -2 19 1 4 3 -2 6 -13 5 -11 0 -14 -3 -6 -6z"/>
<path d="M2971 2423 c3 -20 -2 -34 -10 -28 -18 11 -23 -17 -7 -33 15 -15 18
-15 29 -2 7 9 20 14 30 12 9 -2 17 1 17 7 0 6 -4 11 -9 11 -5 0 -11 9 -14 20
-5 18 -39 30 -36 13z"/>
<path d="M2752 2405 c4 -4 -4 -17 -18 -27 -23 -19 -26 -19 -43 -4 -20 18 -31
20 -31 7 0 -5 9 -11 19 -14 11 -2 21 -15 23 -28 1 -12 9 -24 16 -27 11 -3 12
0 3 16 -10 19 -8 21 31 24 50 4 56 17 20 42 -15 11 -24 16 -20 11z"/>
<path d="M2835 2380 c-7 -12 2 -30 16 -30 12 0 12 27 0 35 -5 3 -12 1 -16 -5z"/>
<path d="M3055 2370 c3 -5 8 -10 11 -10 2 0 4 5 4 10 0 6 -5 10 -11 10 -5 0
-7 -4 -4 -10z"/>
<path d="M2550 2345 c-11 -13 -10 -14 4 -9 9 3 16 10 16 15 0 13 -6 11 -20 -6z"/>
<path d="M2610 2334 c0 -9 5 -14 12 -12 18 6 21 28 4 28 -9 0 -16 -7 -16 -16z"/>
<path d="M2790 2315 c0 -20 42 -37 52 -21 9 13 1 21 -29 31 -17 5 -23 2 -23
-10z"/>
<path d="M2869 2314 c-9 -11 -8 -14 3 -14 19 0 95 -37 104 -51 3 -6 2 -14 -3
-18 -5 -3 -12 -14 -16 -24 -10 -26 -36 -32 -51 -12 -10 13 -20 16 -46 10 l-33
-7 35 -32 c19 -17 37 -44 40 -59 5 -24 1 -30 -20 -38 -21 -8 -29 -7 -39 7 -7
10 -19 14 -29 10 -13 -5 -14 -9 -4 -21 10 -11 9 -18 -5 -31 -12 -12 -15 -26
-11 -49 4 -22 2 -34 -6 -37 -25 -9 -38 4 -38 38 0 19 -5 43 -12 54 -11 16 -8
23 15 48 24 25 37 62 21 62 -8 0 -77 -53 -91 -70 -7 -8 -13 -28 -13 -43 0 -24
-3 -27 -22 -22 -17 6 -20 4 -15 -10 4 -9 7 -20 7 -24 0 -25 74 -83 152 -119
31 -14 38 -22 38 -45 0 -34 -43 -77 -76 -77 -36 0 -74 21 -74 42 0 24 21 23
27 -2 6 -24 7 -24 38 -4 34 22 35 74 2 74 -12 0 -32 -6 -43 -14 -13 -10 -25
-11 -35 -5 -8 5 -31 9 -51 9 -34 0 -38 3 -38 25 0 18 -7 28 -24 35 -19 7 -23
14 -19 31 3 12 14 24 24 26 11 3 20 19 24 44 10 57 0 79 -37 79 -30 0 -30 -1
-24 -39 5 -33 2 -43 -19 -62 -15 -15 -25 -36 -25 -54 l-1 -30 -19 23 c-21 25
-23 24 -63 -31 -7 -10 -29 -22 -47 -26 -36 -7 -44 -26 -12 -26 28 -1 62 -16
63 -28 1 -7 2 -29 3 -51 1 -49 29 -71 52 -42 8 11 12 28 9 37 -6 17 30 69 46
69 4 0 5 -35 2 -77 -5 -63 -4 -75 8 -71 8 3 28 -3 44 -12 26 -15 30 -23 28
-54 -2 -30 1 -37 21 -42 13 -3 30 -4 37 -3 24 4 66 -22 78 -48 15 -33 35 -24
39 18 5 54 -47 87 -100 64 -22 -9 -38 23 -18 35 14 9 5 30 -13 30 -7 0 -29 18
-50 39 l-37 38 21 26 c12 16 30 27 45 27 29 0 31 -20 4 -45 -11 -10 -20 -24
-20 -31 0 -14 54 -29 70 -19 18 11 50 -6 50 -26 0 -12 7 -19 18 -19 21 0 38
-16 89 -82 29 -39 41 -48 67 -48 26 0 34 5 43 30 9 23 18 30 37 30 45 0 33
-35 -19 -57 -47 -19 -54 -36 -17 -41 26 -4 29 -33 7 -52 -16 -13 -39 -2 -59
28 -8 14 -67 42 -87 42 -14 0 16 -48 45 -71 12 -10 18 -21 13 -25 -4 -4 -12
-3 -19 4 -6 6 -23 8 -38 6 -17 -4 -32 0 -43 10 -8 9 -23 16 -33 16 -13 0 -15
-6 -10 -30 3 -17 1 -30 -5 -30 -15 0 -28 -43 -17 -57 14 -17 74 -9 69 8 -2 8
-6 22 -8 32 -7 22 9 22 23 -1 17 -26 26 -95 15 -111 -8 -12 -12 -12 -25 -2 -8
7 -19 10 -25 7 -5 -3 -24 12 -42 34 -37 44 -48 48 -84 24 -30 -20 -34 -54 -6
-54 22 0 33 -21 21 -40 -9 -15 -4 -30 10 -30 5 0 10 15 12 33 5 48 22 35 28
-21 3 -27 13 -56 22 -65 15 -15 17 -14 32 16 9 20 16 25 16 15 0 -10 5 -18 12
-18 6 0 3 -8 -7 -20 -16 -17 -16 -20 -2 -26 8 -3 29 -3 46 -1 57 9 24 -38 -34
-49 -29 -5 -38 -2 -58 22 l-25 28 -7 -33 c-7 -35 5 -52 35 -50 33 3 46 -2 71
-25 29 -27 53 -33 87 -22 15 5 27 2 38 -8 9 -9 20 -14 25 -11 14 9 11 35 -6
41 -28 11 -69 124 -45 124 20 0 40 -27 40 -54 0 -16 6 -26 15 -26 8 0 15 -4
15 -10 0 -5 7 -10 15 -10 8 0 22 -11 31 -25 13 -20 14 -28 4 -40 -7 -8 -19
-15 -26 -15 -23 0 -16 -17 10 -24 13 -3 26 -15 29 -26 4 -16 -2 -21 -35 -27
-48 -10 -51 -27 -5 -31 28 -2 39 3 60 27 28 33 54 40 63 16 4 -8 12 -15 20
-15 8 0 14 -4 14 -8 0 -17 -13 -20 -36 -10 -34 16 -44 0 -15 -21 16 -13 22
-24 17 -36 -6 -16 -8 -16 -30 -2 -28 19 -124 21 -145 4 -12 -10 -7 -13 25 -17
34 -4 39 -9 42 -32 2 -20 -1 -28 -12 -28 -18 0 -21 15 -6 25 6 3 10 10 10 16
0 12 -37 12 -45 -1 -8 -14 -33 -1 -40 21 -8 24 -45 45 -54 31 -4 -7 -12 -8
-21 -2 -13 8 -12 10 3 10 15 0 16 3 5 23 -11 20 -13 20 -16 4 -2 -10 -10 -17
-18 -15 -8 2 -14 8 -12 13 2 6 6 9 10 8 5 -2 8 1 8 7 0 5 -12 13 -26 16 -24 6
-24 8 -10 23 10 9 33 16 56 16 48 0 48 19 1 23 -39 4 -85 -32 -78 -60 12 -45
-83 2 -150 74 -15 16 -32 28 -39 28 -20 0 -24 29 -6 39 15 9 14 10 -5 11 -12
0 -25 -4 -28 -10 -10 -16 -23 -12 -47 13 -23 22 -44 36 -88 59 -14 7 -28 17
-32 23 -5 6 -8 6 -8 0 1 -13 21 -37 42 -50 15 -10 158 -104 208 -138 125 -85
194 -128 245 -153 33 -15 66 -34 73 -41 8 -7 47 -30 89 -50 63 -30 78 -35 94
-25 12 8 19 8 19 2 0 -5 -5 -10 -11 -10 -5 0 -8 -4 -4 -9 7 -12 94 -61 107
-61 6 0 57 -23 115 -50 58 -28 109 -48 112 -44 9 8 -30 34 -51 34 -19 0 -88
49 -88 63 0 4 7 7 15 7 21 0 29 24 17 47 -20 36 69 106 123 96 20 -4 25 -1 25
15 0 23 -25 32 -94 32 -27 0 -56 6 -65 14 -9 7 -34 16 -56 20 -39 6 -40 6 -14
-9 41 -22 44 -44 9 -57 -17 -5 -30 -16 -30 -23 0 -7 -8 -15 -17 -18 -10 -4
-28 -14 -40 -23 -21 -15 -23 -15 -29 0 -4 10 5 27 25 47 34 34 39 54 16 63
-43 16 23 70 74 60 25 -5 29 -3 34 26 5 20 14 34 27 37 24 6 26 26 5 43 -9 7
-15 8 -15 2 0 -5 -14 -15 -31 -21 -17 -6 -28 -15 -24 -21 3 -5 -5 -15 -19 -22
-14 -6 -26 -15 -26 -20 0 -4 -12 -8 -27 -8 -20 0 -31 7 -40 25 -11 24 -10 25
22 25 54 0 88 17 82 40 -7 28 45 80 67 68 9 -5 16 -20 16 -33 0 -37 16 -30 37
15 20 43 46 50 51 12 3 -22 32 -32 32 -11 0 6 10 9 23 7 15 -2 21 -9 19 -21
-2 -13 2 -18 15 -17 10 1 31 2 47 1 l29 -1 -23 -20 c-13 -11 -42 -25 -64 -31
-39 -11 -40 -12 -17 -21 14 -5 30 -7 37 -4 7 3 22 -11 33 -29 17 -30 24 -34
49 -29 17 4 32 1 36 -5 4 -6 18 -11 32 -11 19 0 26 -6 31 -30 7 -38 29 -40 28
-2 0 23 4 27 30 27 23 0 30 -5 35 -25 7 -31 46 -36 43 -6 -1 11 6 26 15 32 18
14 63 8 74 -10 8 -13 -11 -38 -23 -30 -5 3 -30 -16 -55 -42 -40 -40 -49 -45
-65 -35 -15 8 -24 8 -39 -1 -11 -7 -20 -16 -20 -20 0 -11 -57 -38 -64 -30 -4
3 -18 -7 -32 -23 l-25 -30 6 28 c8 41 44 77 76 77 24 0 26 2 20 32 -5 26 -11
31 -35 33 -15 0 -34 9 -42 20 -12 17 -14 17 -14 2 0 -9 -5 -17 -10 -17 -6 0
-8 -11 -4 -25 4 -16 2 -25 -5 -25 -7 0 -19 -16 -27 -36 -9 -21 -22 -44 -30
-52 -23 -22 4 -58 41 -54 24 3 26 1 23 -25 -3 -25 -8 -28 -42 -31 -34 -3 -38
-1 -28 11 15 17 6 47 -14 47 -8 0 -23 -9 -34 -20 -15 -15 -27 -19 -48 -13 -24
6 -26 5 -13 -10 7 -10 21 -17 31 -17 10 0 23 -7 30 -15 14 -17 14 -17 -15 -33
-18 -10 -18 -11 10 -17 17 -4 53 -18 82 -31 60 -28 70 -30 53 -9 -15 19 -5 35
23 35 17 0 23 -6 25 -27 1 -15 5 -30 10 -33 13 -10 83 -32 88 -27 9 8 -27 37
-46 37 -24 0 -35 18 -31 48 1 15 -2 23 -11 22 -22 -3 -56 11 -62 26 -3 8 -1
14 4 14 6 0 10 12 10 26 0 57 94 113 107 64 6 -24 51 -28 59 -5 4 8 10 15 15
15 13 0 11 -47 -2 -55 -7 -5 -4 -14 7 -26 12 -13 14 -23 7 -30 -16 -16 -44 1
-41 24 2 15 -3 23 -17 25 -11 2 -28 13 -38 23 -10 10 -26 19 -36 19 -16 0 -19
-7 -19 -44 1 -44 1 -44 33 -39 33 5 49 -7 50 -37 0 -10 12 -16 38 -18 31 -3
39 0 44 16 5 20 5 20 40 0 l35 -21 21 25 c12 13 39 35 59 49 20 13 42 33 47
44 8 17 10 15 8 -14 -1 -26 -8 -38 -29 -50 -31 -18 -34 -35 -16 -92 10 -34 27
-52 29 -31 0 4 2 14 4 22 2 8 9 33 14 55 6 22 11 55 11 73 0 17 4 32 9 32 20
0 33 70 22 115 -14 56 -14 56 7 48 15 -6 15 -5 3 10 -7 9 -11 23 -8 32 4 8 0
30 -8 49 -20 47 -19 47 13 43 21 -3 28 -10 30 -32 2 -15 -1 -32 -7 -38 -15
-15 -14 -27 3 -27 27 0 38 116 12 126 -20 8 -30 58 -17 83 8 15 7 23 -3 34
-12 12 -12 18 4 42 13 20 16 35 10 56 -5 16 -5 29 0 29 4 0 10 -9 13 -21 5
-18 8 -19 27 -7 18 11 23 10 37 -7 15 -19 15 -19 9 8 -5 20 -2 29 9 33 16 7
22 64 6 64 -5 0 -14 -14 -20 -31 -9 -26 -13 -29 -31 -19 -11 6 -20 15 -20 21
0 5 -11 7 -25 3 -21 -5 -25 -3 -25 15 0 17 6 21 35 21 34 0 39 6 36 40 -2 13
-1 13 8 0 9 -13 10 -13 15 0 19 62 14 90 -14 90 -11 0 -21 4 -24 9 -9 14 16
29 47 29 37 -1 43 7 22 28 -13 13 -16 28 -12 63 6 55 -12 80 -46 63 -12 -6
-29 -13 -37 -15 -8 -3 -1 -6 16 -6 35 -1 51 -23 29 -41 -11 -9 -12 -17 -5 -30
14 -27 14 -27 -27 -35 -31 -5 -39 -3 -53 15 -9 13 -28 24 -41 25 -13 2 -32 6
-41 10 -13 5 -18 -2 -26 -37 l-9 -43 -10 35 c-5 19 -16 35 -24 35 -9 0 -13 10
-12 27 1 15 -5 29 -13 32 -9 3 -14 -1 -14 -14 0 -10 -6 -23 -13 -27 -8 -4 -17
-16 -20 -27 -4 -10 -13 -16 -21 -13 -8 3 -20 0 -26 -8 -15 -18 -90 -8 -113 16
-25 27 -60 9 -55 -29 3 -24 -1 -27 -31 -30 -31 -3 -33 -1 -29 20 3 13 9 30 12
39 9 20 -44 56 -89 61 -27 3 -30 1 -27 -24 3 -24 0 -28 -22 -28 -19 0 -26 5
-26 19 0 11 6 22 13 25 10 5 10 7 0 12 -7 3 -13 14 -13 24 0 28 -15 32 -41 10
-19 -15 -20 -19 -8 -20 12 0 18 -13 22 -47 3 -27 4 -50 2 -52 -2 -1 -14 4 -27
13 -12 9 -17 16 -10 16 6 0 12 9 12 20 0 11 -4 20 -10 20 -5 0 -10 7 -10 15 0
8 -5 15 -11 15 -5 0 -7 5 -4 10 4 6 10 8 15 5 5 -3 12 -1 15 5 9 14 -11 38
-47 56 -25 13 -31 13 -53 -2 l-26 -17 33 -28 c43 -36 30 -52 -30 -37 -37 9
-46 8 -60 -6 -9 -9 -11 -16 -5 -16 14 0 55 -69 50 -84 -3 -6 -10 2 -16 17 -6
16 -16 25 -21 22 -6 -4 -26 9 -44 29 -22 24 -41 36 -59 36 -35 0 -36 -27 -2
-36 25 -6 37 -44 13 -40 -21 3 -39 17 -33 26 6 9 -29 20 -69 20 l-30 0 22 20
c12 12 22 25 22 30 0 6 11 10 25 10 21 0 25 5 25 30 0 22 -6 33 -22 40 -18 7
-19 9 -5 9 10 1 17 9 17 22 0 24 22 49 44 49 12 0 16 -12 17 -52 1 -29 0 -57
-1 -63 -8 -31 -9 -48 -4 -37 3 6 12 12 20 12 8 0 14 9 14 19 0 19 23 35 34 24
3 -4 6 -14 6 -23 0 -20 27 -46 37 -36 3 3 1 16 -5 29 -16 31 -10 98 9 110 9 6
24 7 34 3 16 -6 17 -8 1 -24 -9 -10 -16 -22 -16 -25 0 -9 55 -9 64 1 4 4 24 7
44 7 33 0 37 3 37 25 0 18 -6 26 -22 28 -32 5 -32 42 0 42 13 0 28 -5 34 -11
6 -6 13 -7 16 -2 7 12 -10 53 -23 53 -5 0 -10 6 -10 14 0 18 35 27 49 13 6 -6
14 -8 17 -4 4 3 -1 13 -10 22 -9 9 -16 20 -16 25 0 20 13 40 26 40 8 0 14 9
14 19 0 13 -9 21 -30 26 -40 9 -68 -2 -73 -28 l-4 -22 -2 23 c-1 28 -11 28
-36 0 -15 -18 -20 -19 -23 -8 -11 33 -63 40 -96 15 -28 -21 -58 -19 -54 3 2
11 14 18 38 20 19 1 44 7 55 11 42 19 55 20 87 6 43 -17 68 -1 68 43 0 17 5
34 10 37 17 11 11 33 -11 40 -11 4 -18 13 -16 20 3 7 1 17 -5 23 -13 13 -38
-7 -31 -25 6 -16 -21 -17 -63 -1 -31 11 -35 10 -54 -15 -12 -15 -29 -27 -39
-27 -42 0 -34 -36 10 -45 37 -8 38 -22 2 -22 -16 1 -40 -3 -54 -7 -23 -7 -27
-4 -33 18 -4 18 -13 26 -29 27 -18 1 -17 2 8 11 17 5 36 10 43 10 6 1 12 4 12
6 0 13 -71 72 -92 76 -32 5 -77 -35 -94 -86 -7 -19 -24 -25 -24 -8 0 6 -9 10
-20 10 -14 0 -20 -7 -20 -23 0 -13 -9 -32 -20 -42 -11 -10 -20 -26 -20 -36 0
-29 -17 -31 -24 -3 -4 15 0 37 10 57 9 18 20 38 23 45 3 8 24 20 46 28 22 7
41 18 43 24 2 5 10 10 18 10 10 0 12 8 8 28 -5 23 0 33 25 55 34 28 42 67 14
67 -12 0 -14 3 -6 11 8 8 17 8 31 0 11 -6 34 -8 50 -5 25 5 30 10 26 29 -2 13
1 25 8 28 7 2 5 3 -5 1 -27 -4 -47 6 -47 23 0 15 -14 14 -94 -6 -30 -7 -48 -6
-72 4 -28 11 -35 11 -45 -1z m216 -45 c0 -8 -10 -15 -23 -17 -21 -3 -22 -1
-12 18 12 23 35 22 35 -1z m-120 -323 c-23 -35 -39 -22 -19 16 11 20 19 27 26
20 7 -7 4 -18 -7 -36z m153 -3 c2 -7 -9 -18 -24 -23 -22 -9 -31 -8 -43 5 -14
14 -14 17 -1 25 20 13 62 8 68 -7z m-98 -58 c22 -26 -3 -42 -34 -21 -15 9 -26
21 -26 26 0 16 46 12 60 -5z m-123 -10 c1 -5 -2 -17 -7 -25 -9 -13 -11 -13
-20 0 -15 23 -12 42 7 38 9 -2 18 -7 20 -13z m-451 -14 c-19 -21 -46 -18 -46
5 0 9 11 14 32 14 30 0 31 -1 14 -19z m644 4 c0 -8 -6 -15 -14 -15 -17 0 -28
14 -19 24 12 12 33 6 33 -9z m-195 -55 c3 -11 2 -27 -3 -36 -9 -16 -11 -15
-21 4 -11 21 -6 52 9 52 5 0 11 -9 15 -20z m210 10 c19 -8 19 -9 -2 -9 -12 -1
-29 -8 -38 -17 -8 -9 -23 -13 -32 -10 -14 6 -14 8 2 26 19 21 38 24 70 10z
m253 -60 c-1 -22 -6 -30 -20 -30 -32 0 -16 54 19 60 1 0 1 -13 1 -30z m-158
-11 c0 -12 -7 -19 -20 -19 -24 0 -38 29 -20 40 19 12 40 1 40 -21z m-204 6 c4
-8 4 -22 0 -30 -7 -19 -36 -8 -36 14 0 32 26 43 36 16z m94 1 c0 -11 -19 -15
-25 -6 -3 5 1 10 9 10 9 0 16 -2 16 -4z m-150 -94 c0 -8 -9 -25 -20 -39 -11
-14 -20 -34 -20 -44 0 -25 -17 -24 -32 1 -7 11 -19 20 -26 20 -24 0 -9 44 18
51 14 4 19 7 13 8 -18 1 -16 16 3 35 14 14 18 14 39 -2 14 -9 25 -23 25 -30z
m251 18 c5 0 9 -11 9 -24 0 -19 -5 -24 -23 -22 -31 4 -47 14 -47 31 0 16 19
25 38 19 8 -2 18 -4 23 -4z m127 -239 c3 -8 -3 -12 -14 -9 -23 4 -31 27 -8 24
10 -2 20 -8 22 -15z m234 13 c3 -3 2 -20 -2 -39 -6 -28 -4 -34 11 -38 18 -5
28 -37 12 -37 -5 0 -18 -3 -30 -6 -20 -5 -23 -2 -23 20 0 15 -7 38 -16 51 -13
20 -14 28 -4 40 12 15 42 20 52 9z m-502 -55 c0 -5 -7 -9 -15 -9 -15 0 -20 12
-9 23 8 8 24 -1 24 -14z m830 -52 c11 -3 20 -10 20 -16 0 -21 -28 -23 -86 -6
-40 12 -60 13 -67 6 -7 -7 -7 -11 -1 -11 6 0 18 -6 29 -13 17 -14 17 -15 -1
-33 -47 -45 -51 -47 -73 -23 -22 23 -20 61 3 86 16 17 106 29 106 14 0 -6 7
-11 15 -11 11 0 15 11 16 38 l1 37 9 -31 c5 -18 17 -34 29 -37z m153 48 c1 -5
-6 -11 -15 -13 -11 -2 -18 3 -18 13 0 17 30 18 33 0z m-563 -50 c0 -38 -5 -42
-34 -20 -11 8 -28 15 -39 15 -16 0 -15 4 9 29 36 38 64 27 64 -24z m-460 15
c0 -25 -4 -30 -25 -30 -29 0 -32 16 -8 42 23 26 33 22 33 -12z m154 14 c20 -8
21 -24 1 -24 -9 0 -24 -13 -33 -30 -9 -16 -22 -30 -28 -30 -16 0 -24 -23 -17
-48 7 -29 -13 -36 -31 -11 -13 19 -13 23 5 42 10 11 19 31 19 44 0 18 5 23 27
23 14 0 23 3 20 7 -4 3 -2 12 4 20 13 15 12 15 33 7z m863 -30 c42 9 58 -5 42
-35 -17 -31 -19 -175 -3 -216 7 -17 11 -39 10 -47 -3 -20 -16 -33 -16 -17 0 7
-8 11 -17 10 -41 -4 -43 0 -37 44 4 23 13 49 20 58 16 18 18 45 5 53 -5 3 -7
15 -4 25 3 10 0 28 -6 39 -7 14 -8 23 -1 27 12 7 4 25 -11 25 -5 0 -9 -9 -9
-20 0 -15 -7 -20 -26 -20 -21 0 -25 -4 -21 -19 3 -11 -1 -22 -9 -25 -10 -4
-13 3 -10 27 2 20 10 33 20 35 11 3 16 14 16 39 0 30 2 34 15 23 8 -7 26 -9
42 -6z m-786 -21 c0 -4 6 -17 13 -28 7 -11 16 -37 20 -58 5 -29 4 -39 -9 -43
-8 -3 -15 -14 -15 -23 0 -9 -4 -21 -9 -26 -15 -16 -1 -60 22 -70 28 -13 34
-35 8 -35 -11 0 -25 9 -31 20 -6 11 -19 20 -29 20 -27 0 -33 11 -15 31 14 16
14 18 -6 24 -31 10 -21 38 18 50 27 8 32 14 32 41 0 18 -7 39 -15 48 -18 18
-19 38 -3 54 12 12 20 10 19 -5z m415 6 c10 -17 -13 -36 -27 -22 -12 12 -4 33
11 33 5 0 12 -5 16 -11z m-731 -29 c16 -16 23 -30 17 -30 -7 0 -20 9 -29 20
-10 11 -23 20 -30 20 -7 0 -13 5 -13 10 0 19 27 10 55 -20z m475 -5 c16 -8 29
-10 36 -4 17 14 41 -18 25 -34 -9 -9 -14 -9 -20 1 -6 9 -19 11 -43 7 -36 -7
-67 13 -53 35 8 13 25 12 55 -5z m760 -10 c0 -8 -7 -15 -16 -15 -14 0 -14 3
-4 15 7 8 14 15 16 15 2 0 4 -7 4 -15z m-1200 -71 c0 -11 -21 -24 -40 -24 -4
0 -15 12 -25 26 -14 21 -15 28 -4 35 15 9 69 -19 69 -37z m215 36 c-3 -5 -11
-10 -16 -10 -6 0 -7 5 -4 10 3 6 11 10 16 10 6 0 7 -4 4 -10z m482 -41 c16
-16 -5 -61 -26 -57 -20 4 -26 35 -11 53 15 18 22 19 37 4z m249 -9 c20 -8 23
-14 17 -40 -5 -26 -2 -32 16 -37 15 -4 21 -13 21 -34 0 -35 -16 -46 -38 -25
-11 9 -27 13 -40 9 -17 -4 -22 -1 -22 15 0 12 6 25 14 29 37 22 19 84 -20 69
-17 -7 -44 9 -44 26 0 11 54 4 96 -12z m-446 -26 c0 -31 -23 -28 -28 4 -2 15
2 22 12 22 11 0 16 -9 16 -26z m-351 -3 c12 -8 12 -12 2 -25 -9 -11 -10 -16
-2 -16 6 0 11 -11 11 -25 0 -14 5 -25 10 -25 18 0 10 -29 -10 -35 -37 -12 -58
26 -22 40 15 6 14 8 -8 20 -17 9 -29 10 -37 3 -10 -8 -13 -5 -13 10 0 11 7 22
15 26 8 3 15 12 15 21 0 17 18 19 39 6z m448 -13 c17 -22 22 -68 7 -68 -29 0
-64 21 -64 38 0 35 38 55 57 30z m288 -17 c-3 -6 -11 -8 -17 -5 -6 4 -5 9 3
15 16 10 23 4 14 -10z m-80 -11 c3 -5 1 -10 -4 -10 -6 0 -11 5 -11 10 0 6 2
10 4 10 3 0 8 -4 11 -10z m-747 -73 c-2 -14 -11 -23 -24 -25 -26 -4 -38 22
-24 49 15 27 53 7 48 -24z m452 -4 c0 -7 -9 -13 -20 -13 -12 0 -20 7 -20 16 0
9 -9 18 -20 21 -11 3 -18 9 -15 13 7 11 75 -22 75 -37z m198 5 c-2 -18 -10
-23 -35 -24 -18 -1 -43 -8 -57 -17 -44 -29 -71 -16 -47 22 6 9 21 12 46 9 30
-3 39 -1 43 14 3 11 14 18 29 18 20 0 24 -4 21 -22z m64 2 c7 -11 18 -20 23
-20 6 0 16 -5 22 -11 12 -12 -14 -66 -43 -90 -21 -17 -36 6 -29 41 3 15 -1 34
-9 45 -9 11 -16 28 -16 38 0 24 37 22 52 -3z m143 -14 c73 -34 71 -32 55 -51
-7 -8 -10 -24 -7 -35 4 -16 -1 -23 -19 -30 -20 -8 -23 -15 -21 -47 2 -36 0
-38 -28 -39 -16 0 -40 -6 -53 -13 -21 -11 -24 -10 -33 18 -8 22 -18 31 -37 33
-26 3 -26 4 18 36 25 18 55 46 68 62 22 28 22 29 2 35 -14 5 -20 15 -20 37 0
16 3 28 8 26 4 -2 34 -17 67 -32z m-1019 -28 c3 -5 4 -11 1 -14 -8 -9 -48 -13
-63 -7 -13 5 -13 8 1 23 16 18 50 17 61 -2z m365 -16 c-6 -2 -11 -12 -11 -23
0 -12 -7 -19 -18 -19 -10 0 -24 -6 -32 -12 -7 -7 -4 1 7 17 11 17 18 36 16 43
-3 6 6 16 19 21 18 7 24 5 27 -7 2 -9 -2 -18 -8 -20z m-133 -5 c2 -10 -3 -17
-12 -17 -18 0 -29 16 -21 31 9 14 29 6 33 -14z m912 -7 c0 -12 -26 -19 -40
-10 -18 11 -3 29 20 23 11 -3 20 -9 20 -13z m-348 -35 c-4 -46 14 -85 40 -85
20 0 21 -1 12 -24 -7 -17 -34 -22 -34 -7 0 5 -21 20 -46 32 -47 24 -63 38 -45
40 6 1 16 3 21 4 6 1 14 3 19 4 4 0 6 12 3 26 -6 32 4 58 21 52 7 -2 11 -18 9
-42z m-588 -14 c17 -18 16 -20 -3 -26 -26 -8 -41 1 -41 26 0 24 22 25 44 0z
m945 -25 c6 -7 9 -20 5 -29 -3 -9 4 -29 16 -45 37 -49 11 -68 -40 -30 -33 24
-37 40 -15 58 9 8 13 21 9 36 -7 26 7 32 25 10z m61 -16 c0 -5 -7 -7 -15 -4
-8 4 -15 8 -15 10 0 2 7 4 15 4 8 0 15 -4 15 -10z m-83 -144 c-4 -9 -11 -16
-17 -16 -11 0 -14 33 -3 44 11 10 26 -11 20 -28z m-935 -8 c-6 -6 -16 -7 -22
-3 -9 6 -9 9 1 16 17 10 34 0 21 -13z m66 -4 c0 -32 -42 -79 -63 -70 -22 8
-18 21 10 36 14 8 28 24 31 37 8 31 22 29 22 -3z m802 -38 c0 -8 -6 -16 -12
-19 -9 -3 -6 -10 10 -22 26 -19 28 -32 5 -57 -18 -20 -83 -25 -83 -6 0 6 -8
20 -17 30 -12 13 -13 22 -6 29 14 14 36 2 29 -16 -3 -8 2 -12 12 -11 20 3 28
34 13 49 -7 7 -5 14 7 23 23 18 42 17 42 0z m80 -36 c0 -5 -7 -7 -15 -4 -8 4
-12 10 -9 15 6 11 24 2 24 -11z m-225 -40 c-3 -5 -13 -6 -21 -3 -12 4 -13 8
-3 14 15 9 32 2 24 -11z m-607 -8 c6 -18 -15 -14 -22 4 -4 10 -1 14 6 12 6 -2
14 -10 16 -16z m96 -14 c19 -38 19 -38 2 -38 -8 0 -16 7 -20 15 -3 8 -15 15
-26 15 -11 0 -20 6 -20 13 0 39 44 36 64 -5z m701 -38 c-3 -5 -13 -10 -21 -10
-8 0 -12 5 -9 10 3 6 13 10 21 10 8 0 12 -4 9 -10z m-94 -20 c23 -13 25 -38 3
-47 -21 -8 -56 31 -41 46 13 13 14 13 38 1z m-307 -66 c9 -3 16 -12 16 -20 0
-19 -66 -19 -73 0 -10 24 19 34 57 20z"/>
<path d="M3867 963 c-4 -3 -7 -11 -7 -17 0 -6 5 -5 12 2 6 6 9 14 7 17 -3 3
-9 2 -12 -2z"/>
<path d="M2569 2291 c-7 -10 -20 -16 -29 -14 -10 3 -20 -3 -24 -13 -10 -25 0
-29 28 -10 38 24 66 21 66 -7 0 -14 6 -24 15 -24 8 0 15 4 15 8 0 3 8 9 19 12
12 3 18 12 16 28 -4 42 -6 44 -15 22 -12 -28 -46 -30 -53 -3 -6 25 -23 26 -38
1z"/>
<path d="M2409 2201 c-41 -38 -70 -73 -66 -78 5 -4 16 1 25 12 10 11 33 30 52
42 19 12 41 31 48 43 7 11 17 18 22 15 6 -3 10 1 10 9 0 33 -21 23 -91 -43z"/>
<path d="M2743 2256 c3 -8 -5 -18 -20 -25 -21 -9 -23 -14 -13 -26 7 -8 18 -15
26 -15 17 0 57 57 49 70 -10 16 -48 12 -42 -4z"/>
<path d="M2840 2251 c0 -6 5 -13 10 -16 6 -3 10 1 10 9 0 9 -4 16 -10 16 -5 0
-10 -4 -10 -9z"/>
<path d="M3102 2202 c-10 -10 -26 -21 -35 -25 -21 -8 -22 -27 -3 -27 22 0 76
33 76 47 0 21 -19 24 -38 5z"/>
<path d="M2520 2181 c-14 -4 -26 -15 -28 -25 -6 -28 49 -17 59 12 9 23 8 24
-31 13z"/>
<path d="M2630 2152 c0 -11 7 -25 16 -33 13 -10 17 -10 25 2 14 22 6 44 -19
47 -16 3 -22 -2 -22 -16z"/>
<path d="M3146 2161 c-4 -5 3 -7 14 -4 23 6 26 13 6 13 -8 0 -17 -4 -20 -9z"/>
<path d="M3283 2144 c9 -11 17 -26 17 -32 0 -7 12 -12 26 -12 22 0 25 2 14 15
-11 13 -8 15 14 15 14 0 26 5 26 10 0 6 -15 8 -40 4 -27 -4 -46 -2 -57 7 -17
13 -17 13 0 -7z"/>
<path d="M3100 2136 c0 -16 19 -25 38 -19 10 4 10 8 1 19 -15 18 -39 18 -39 0z"/>
<path d="M3214 2125 c-4 -8 -12 -15 -20 -15 -17 0 -18 -16 -2 -26 11 -7 48 29
48 47 0 15 -20 10 -26 -6z"/>
<path d="M2835 2120 c3 -5 13 -10 21 -10 8 0 14 5 14 10 0 6 -9 10 -21 10 -11
0 -17 -4 -14 -10z"/>
<path d="M2470 2100 c0 -5 5 -10 10 -10 6 0 10 5 10 10 0 6 -4 10 -10 10 -5 0
-10 -4 -10 -10z"/>
<path d="M3430 2096 c0 -2 7 -6 15 -10 8 -3 15 -1 15 4 0 6 -7 10 -15 10 -8 0
-15 -2 -15 -4z"/>
<path d="M2196 1985 l-95 -95 24 -24 c21 -21 26 -22 36 -10 7 9 8 14 3 13 -35
-6 -44 10 -18 35 22 22 33 20 40 -9 3 -14 10 -25 15 -25 21 0 6 -19 -28 -38
-27 -14 -37 -25 -34 -38 2 -11 3 -32 3 -49 0 -34 12 -45 47 -45 13 0 30 -8 37
-17 9 -12 13 -14 14 -5 0 7 5 10 10 7 6 -3 10 -1 10 6 0 7 8 5 20 -6 12 -11
28 -20 36 -21 17 -3 50 43 40 54 -4 3 -11 0 -15 -7 -5 -7 -17 -11 -27 -9 -14
2 -20 13 -22 41 -4 45 -31 51 -56 12 -21 -32 -32 -32 -41 2 -4 19 -2 31 9 39
9 6 16 19 16 28 0 9 7 16 14 16 20 0 66 44 66 63 0 8 -7 17 -15 21 -8 3 -15
15 -15 26 0 15 -5 20 -17 18 -26 -5 -29 -38 -5 -45 12 -3 23 -11 26 -19 10
-26 -22 -27 -53 -2 -32 24 -42 68 -16 68 8 0 20 9 27 20 15 23 38 27 38 5 0
-8 7 -15 15 -15 18 0 19 14 3 41 -11 17 -10 22 5 34 10 7 14 16 9 19 -6 3 -53
-37 -106 -89z"/>
<path d="M2375 2050 c-3 -5 1 -10 9 -10 9 0 16 5 16 10 0 6 -4 10 -9 10 -6 0
-13 -4 -16 -10z"/>
<path d="M3487 2041 c-3 -12 4 -16 30 -17 39 -2 40 16 1 27 -20 5 -27 3 -31
-10z"/>
<path d="M2448 2036 c-22 -7 -28 -16 -28 -38 0 -18 -5 -28 -14 -28 -33 0 -66
-19 -60 -35 6 -14 10 -13 30 6 13 12 24 19 24 15 0 -5 6 -3 14 3 7 6 21 9 30
5 12 -4 16 0 16 16 0 12 5 30 11 42 13 25 10 27 -23 14z"/>
<path d="M3585 2000 c3 -5 13 -10 21 -10 8 0 14 5 14 10 0 6 -9 10 -21 10 -11
0 -17 -4 -14 -10z"/>
<path d="M3468 1984 c17 -8 15 -33 -3 -40 -32 -13 -3 -21 35 -11 28 8 49 8 68
1 43 -16 57 -6 29 20 -18 16 -42 25 -83 29 -33 3 -53 3 -46 1z"/>
<path d="M3686 1946 c7 -19 58 -22 52 -3 -3 6 -17 13 -31 15 -21 3 -26 0 -21
-12z"/>
<path d="M2658 1900 c-10 -23 -6 -52 5 -41 5 5 7 19 5 32 -3 17 -6 20 -10 9z"/>
<path d="M3630 1897 c0 -10 7 -17 15 -17 25 0 17 -19 -11 -26 -21 -5 -31 -2
-44 16 -14 19 -22 21 -46 15 -16 -5 -32 -9 -36 -10 -5 -2 -15 -3 -24 -4 -26
-2 -14 -55 14 -59 27 -4 29 -26 4 -44 -11 -7 -21 -26 -24 -41 -5 -26 -3 -28
18 -24 31 5 30 2 -4 -31 -25 -24 -28 -34 -26 -82 1 -30 2 -59 3 -64 2 -16 31
16 31 36 0 10 8 31 17 45 10 15 16 37 15 50 -2 13 1 23 7 23 6 0 11 -10 11
-22 0 -13 7 -32 16 -43 13 -17 16 -18 25 -5 5 8 6 32 3 53 -5 33 -2 41 22 64
23 21 31 23 46 14 11 -7 18 -7 18 -1 0 5 17 20 38 34 27 17 43 21 59 15 16 -6
25 -4 31 7 5 9 15 12 25 8 20 -7 22 -25 5 -42 -8 -8 -8 -15 1 -26 18 -21 -6
-32 -28 -12 -19 18 -41 21 -41 7 0 -6 5 -13 10 -16 6 -3 10 -10 10 -16 0 -14
-33 -11 -56 6 -25 17 -96 15 -102 -4 -2 -7 6 -15 18 -18 16 -4 18 -8 8 -14
-11 -7 -10 -11 2 -19 17 -11 36 13 24 32 -5 8 1 9 22 3 16 -5 46 -9 67 -10 21
-1 43 -7 49 -13 15 -15 51 4 44 24 -3 8 -2 13 3 9 5 -3 16 -2 25 1 18 7 13 43
-8 56 -17 12 23 9 45 -2 15 -9 21 -7 25 5 7 17 39 20 49 5 12 -19 35 -10 41
16 7 29 -7 44 -42 44 -13 0 -24 -8 -27 -20 -8 -31 -56 -26 -94 10 -31 29 -73
41 -73 20 0 -16 -37 -12 -44 5 -9 24 -39 17 -68 -15 -28 -32 -65 -42 -54 -14
3 9 6 19 6 24 0 9 80 50 98 50 7 0 12 5 12 10 0 6 -11 10 -25 10 -14 0 -25 -4
-25 -10 0 -16 -42 -12 -62 7 -17 15 -18 15 -18 0z m-48 -87 c9 -17 15 -30 13
-30 -3 0 -54 21 -63 26 -1 0 0 9 4 18 9 24 27 19 46 -14z m-2 -65 c0 -8 -9
-15 -20 -15 -22 0 -27 15 -7 23 21 9 27 7 27 -8z"/>
<path d="M3780 1864 c0 -8 5 -12 10 -9 6 4 8 11 5 16 -9 14 -15 11 -15 -7z"/>
<path d="M3884 1855 c22 -17 56 -20 56 -6 0 11 -25 21 -53 21 -22 -1 -22 -1
-3 -15z"/>
<path d="M2019 1808 c-28 -29 -30 -33 -14 -37 11 -2 21 2 23 8 6 18 23 13 47
-15 13 -15 25 -22 29 -16 3 5 -1 13 -10 16 -10 4 -13 13 -10 24 4 11 -1 25
-13 36 -18 16 -20 15 -52 -16z"/>
<path d="M1955 1740 c-18 -19 -17 -20 3 -20 15 0 22 6 22 20 0 11 -2 20 -3 20
-2 0 -12 -9 -22 -20z"/>
<path d="M2040 1740 c0 -11 5 -20 10 -20 6 0 10 9 10 20 0 11 -4 20 -10 20 -5
0 -10 -9 -10 -20z"/>
<path d="M4165 1750 c-3 -5 -1 -10 4 -10 6 0 11 5 11 10 0 6 -2 10 -4 10 -3 0
-8 -4 -11 -10z"/>
<path d="M4076 1726 c4 -11 18 -16 42 -16 43 0 33 16 -16 26 -27 6 -31 4 -26
-10z"/>
<path d="M3972 1719 c2 -7 10 -15 17 -17 8 -3 12 1 9 9 -2 7 -10 15 -17 17 -8
3 -12 -1 -9 -9z"/>
<path d="M1895 1680 c-18 -20 -17 -20 12 -20 35 0 44 7 36 26 -7 20 -27 17
-48 -6z"/>
<path d="M3440 1675 c0 -14 5 -25 10 -25 6 0 10 11 10 25 0 14 -4 25 -10 25
-5 0 -10 -11 -10 -25z"/>
<path d="M2115 1681 c-10 -16 5 -79 21 -85 19 -7 23 4 15 48 -6 39 -23 57 -36
37z"/>
<path d="M6225 1683 c-16 -2 -39 -8 -50 -13 -24 -10 -67 -19 -155 -29 -36 -4
-85 -12 -110 -18 -99 -24 -184 -33 -317 -33 -102 0 -143 -4 -151 -13 -13 -16
-174 -16 -194 0 -7 6 -85 13 -178 17 -221 8 -301 16 -325 32 -25 16 -263 41
-274 28 -4 -5 -15 -38 -25 -74 -16 -60 -56 -205 -75 -275 -10 -38 -23 -84 -55
-207 -55 -208 -78 -295 -96 -358 -10 -36 -26 -96 -35 -135 -9 -38 -20 -81 -25
-95 -4 -14 -13 -50 -20 -80 -6 -30 -18 -73 -27 -96 -8 -23 -13 -54 -11 -70 3
-25 8 -30 43 -36 22 -4 60 -11 85 -17 116 -27 233 -49 385 -70 39 -6 122 -17
185 -27 239 -34 893 -34 1135 0 66 9 156 21 200 26 44 6 100 14 125 19 25 5
79 16 120 24 41 9 100 21 130 27 30 7 73 15 95 19 l40 6 -1 60 c0 39 -8 74
-21 100 -11 22 -23 66 -27 98 -3 32 -13 71 -21 86 -7 15 -19 59 -26 97 -6 38
-17 76 -24 84 -7 8 -17 49 -24 90 -7 41 -18 81 -25 90 -8 8 -17 52 -21 98 -5
53 -12 85 -20 88 -7 3 -19 35 -26 72 -6 36 -20 80 -29 96 -10 17 -20 60 -24
95 -3 36 -11 68 -16 71 -5 3 -15 33 -21 66 -9 46 -56 170 -63 163 0 -1 -14 -4
-31 -6z"/>
<path d="M4040 1671 c-8 -5 -25 -13 -37 -19 -14 -8 -31 -9 -46 -3 -25 10 -50
-3 -55 -29 -2 -8 -8 -16 -13 -18 -12 -5 -12 -42 1 -42 6 0 10 6 10 13 0 22 37
51 45 37 6 -9 10 -9 16 1 8 14 28 19 81 20 15 0 31 5 34 11 9 15 -18 37 -36
29z"/>
<path d="M4116 1664 c-11 -29 -6 -34 38 -34 38 0 45 -3 50 -25 4 -14 10 -25
14 -25 12 0 34 68 27 80 -9 15 -37 12 -62 -5 -20 -14 -22 -14 -28 5 -8 24 -30
26 -39 4z"/>
<path d="M2353 1624 c-7 -18 11 -39 26 -30 17 11 13 46 -4 46 -9 0 -18 -7 -22
-16z"/>
<path d="M2500 1628 c0 -10 -9 -22 -20 -28 -24 -13 -28 -45 -4 -36 9 3 18 6
20 6 2 0 4 6 4 14 0 8 5 16 12 18 8 3 8 9 0 24 -10 16 -11 17 -12 2z"/>
<path d="M4325 1620 c-3 -5 -1 -10 4 -10 6 0 11 5 11 10 0 6 -2 10 -4 10 -3 0
-8 -4 -11 -10z"/>
<path d="M1825 1609 c-11 -17 1 -21 15 -4 8 9 8 15 2 15 -6 0 -14 -5 -17 -11z"/>
<path d="M2060 1610 c-13 -8 -12 -10 3 -10 9 0 17 5 17 10 0 12 -1 12 -20 0z"/>
<path d="M3625 1579 c-6 -18 -13 -20 -40 -16 -38 6 -67 -15 -47 -35 8 -8 15
-8 27 2 12 10 18 9 33 -10 21 -26 42 -20 42 11 0 21 29 26 48 7 7 -7 8 -17 1
-30 -8 -14 -6 -18 9 -18 10 0 26 6 36 13 16 12 16 14 -3 31 -12 11 -21 30 -21
43 0 20 -5 23 -39 23 -32 0 -41 -4 -46 -21z"/>
<path d="M3784 1591 c4 -5 2 -21 -4 -36 -9 -23 -7 -28 9 -32 11 -3 22 -11 25
-19 5 -13 36 -20 36 -8 0 3 -12 21 -26 40 -14 18 -24 41 -20 49 3 9 0 15 -10
15 -8 0 -13 -4 -10 -9z"/>
<path d="M4056 1593 c-4 -5 -24 -8 -44 -8 -36 0 -37 -1 -40 -41 -2 -33 1 -42
15 -46 16 -4 18 0 15 28 -3 24 0 36 12 40 22 9 45 -13 39 -36 -4 -15 0 -20 15
-20 15 0 21 9 25 37 4 20 4 40 1 45 -6 10 -28 11 -38 1z"/>
<path d="M1790 1571 c0 -6 5 -13 10 -16 6 -3 10 1 10 9 0 9 -4 16 -10 16 -5 0
-10 -4 -10 -9z"/>
<path d="M1880 1571 c0 -5 7 -12 16 -15 14 -5 15 -4 4 9 -14 17 -20 19 -20 6z"/>
<path d="M2515 1570 c-8 -13 13 -40 30 -40 19 0 26 38 8 44 -21 9 -31 7 -38
-4z"/>
<path d="M2000 1559 c0 -5 5 -7 10 -4 6 3 10 8 10 11 0 2 -4 4 -10 4 -5 0 -10
-5 -10 -11z"/>
<path d="M2230 1552 c0 -5 6 -15 14 -21 11 -10 12 -19 4 -42 -12 -35 -31 -37
-63 -4 -21 20 -25 21 -25 7 1 -21 27 -57 43 -58 7 0 18 4 25 9 8 7 18 2 33
-17 11 -14 25 -26 30 -26 14 0 11 30 -6 46 -19 20 -19 29 1 49 15 15 15 17 -2
31 -32 25 -54 35 -54 26z"/>
<path d="M4260 1551 c0 -6 5 -13 10 -16 6 -3 10 1 10 9 0 9 -4 16 -10 16 -5 0
-10 -4 -10 -9z"/>
<path d="M4312 1540 c0 -14 2 -19 5 -12 2 6 2 18 0 25 -3 6 -5 1 -5 -13z"/>
<path d="M1873 1494 c-7 -20 18 -38 29 -21 13 20 9 37 -7 37 -9 0 -18 -7 -22
-16z"/>
<path d="M2620 1495 c0 -8 5 -15 10 -15 6 0 10 7 10 15 0 8 -4 15 -10 15 -5 0
-10 -7 -10 -15z"/>
<path d="M2520 1475 c-15 -18 -5 -35 20 -35 10 0 22 5 25 10 7 11 -12 40 -25
40 -4 0 -13 -7 -20 -15z"/>
<path d="M3750 1470 c-13 -8 -13 -11 0 -24 18 -17 60 -4 60 19 0 17 -36 20
-60 5z"/>
<path d="M4240 1451 c0 -5 5 -13 10 -16 6 -3 10 -2 10 4 0 5 -4 13 -10 16 -5
3 -10 2 -10 -4z"/>
<path d="M2430 1436 c0 -9 -8 -19 -17 -22 -59 -19 -69 -27 -85 -67 -10 -23
-18 -49 -18 -58 0 -8 -5 -20 -12 -27 -6 -6 -9 -15 -5 -19 8 -8 36 26 37 44 0
18 61 74 74 70 20 -7 18 -36 -3 -63 -14 -18 -21 -41 -21 -70 0 -37 3 -44 20
-44 13 0 22 9 26 28 4 15 14 33 23 40 24 19 22 102 -4 123 -18 16 -18 17 -2
34 19 18 18 36 -1 43 -7 2 -12 -4 -12 -12z"/>
<path d="M2583 1405 c-17 -24 -19 -24 -47 -10 -36 19 -52 19 -60 -1 -3 -9 4
-25 19 -40 31 -31 34 -80 5 -89 -22 -7 -25 -26 -9 -56 14 -27 -6 -52 -36 -45
-20 5 -23 1 -28 -36 -6 -48 -1 -60 16 -38 18 23 77 63 77 52 0 -6 -7 -13 -15
-16 -13 -4 -14 -10 -5 -26 13 -25 35 -26 52 -2 7 9 21 17 31 18 80 4 80 4 67
19 -7 8 -16 12 -21 10 -4 -3 -17 3 -29 15 -11 11 -25 20 -31 20 -6 0 -8 9 -3
23 4 12 6 52 5 89 -2 68 8 90 34 68 10 -9 19 -5 39 17 32 34 32 39 4 47 -37
10 -45 7 -65 -19z"/>
<path d="M1960 1401 c0 -5 17 -21 37 -37 21 -16 45 -36 55 -46 10 -10 23 -18
30 -18 6 0 -14 25 -45 55 -52 52 -77 66 -77 46z"/>
<path d="M2060 1390 c0 -5 5 -10 10 -10 6 0 10 5 10 10 0 6 -4 10 -10 10 -5 0
-10 -4 -10 -10z"/>
<path d="M2130 1387 c0 -7 7 -20 14 -30 12 -15 15 -16 26 -2 10 12 10 19 2 27
-16 16 -42 19 -42 5z"/>
<path d="M4258 1380 c-4 -14 -8 -34 -8 -45 1 -19 1 -19 11 -2 6 10 9 30 7 45
l-3 27 -7 -25z"/>
<path d="M2085 1360 c4 -6 11 -8 16 -5 14 9 11 15 -7 15 -8 0 -12 -5 -9 -10z"/>
<path d="M2221 1351 c-22 -14 -2 -76 24 -76 13 0 19 5 16 15 -2 8 -6 27 -9 43
-5 29 -9 32 -31 18z"/>
<path d="M4233 1303 c-16 -6 -17 -33 -3 -33 11 0 26 28 19 34 -2 2 -10 1 -16
-1z"/>
<path d="M2100 1279 c0 -3 15 -18 33 -32 17 -14 41 -33 52 -43 31 -29 103 -74
117 -73 9 0 8 3 -2 7 -46 21 -78 72 -45 72 8 0 15 7 15 15 0 20 -17 19 -28 -1
-13 -23 -46 -13 -50 14 -2 14 -10 22 -23 22 -11 0 -18 4 -15 9 3 5 -8 11 -24
13 -17 3 -30 1 -30 -3z"/>
<path d="M2299 1216 c-19 -13 -21 -46 -3 -46 7 0 14 -5 16 -12 6 -16 28 0 28
20 0 9 -6 24 -13 33 -10 13 -16 14 -28 5z"/>
<path d="M2470 1060 c0 -5 5 -10 11 -10 5 0 7 5 4 10 -3 6 -8 10 -11 10 -2 0
-4 -4 -4 -10z"/>
<path d="M2573 1053 c-20 -8 -15 -23 7 -23 11 0 24 -8 27 -17 11 -30 26 -40
50 -35 13 2 23 7 23 11 0 15 -25 31 -47 31 -16 0 -23 6 -23 20 0 19 -12 24
-37 13z"/>
<path d="M4163 1031 c3 -12 -3 -27 -14 -37 -11 -10 -17 -25 -14 -34 3 -10 1
-29 -4 -44 -15 -38 5 -33 23 7 21 46 32 127 16 127 -7 0 -10 -8 -7 -19z"/>
<path d="M3397 953 c-14 -13 -6 -23 18 -23 16 0 25 6 25 15 0 15 -31 21 -43 8z"/>
<path d="M2650 936 c0 -9 7 -16 16 -16 17 0 14 22 -4 28 -7 2 -12 -3 -12 -12z"/>
<path d="M3354 874 c-7 -28 7 -50 28 -41 7 2 21 19 31 36 l18 31 -35 0 c-30 0
-37 -4 -42 -26z"/>
<path d="M3457 845 c-18 -13 -18 -14 2 -25 12 -6 21 -17 21 -24 0 -8 9 -24 20
-37 15 -19 19 -20 20 -8 0 9 7 22 15 29 21 17 19 27 -11 55 -31 28 -42 30 -67
10z"/>
<path d="M3736 735 c4 -8 10 -15 14 -15 4 0 10 7 14 15 4 10 -1 15 -14 15 -13
0 -18 -5 -14 -15z"/>
<path d="M3463 661 c-3 -12 -9 -21 -14 -21 -5 0 -9 -7 -9 -15 0 -24 14 -18 33
14 12 20 14 32 6 36 -6 4 -13 -2 -16 -14z"/>
<path d="M3873 403 c-7 -2 -13 -11 -13 -19 0 -11 8 -14 28 -12 16 2 27 9 27
18 0 15 -21 22 -42 13z"/>
<path d="M3805 351 c-4 -7 3 -11 17 -11 13 0 29 -5 35 -11 11 -11 108 -49 125
-49 39 0 -74 60 -139 74 -18 4 -34 3 -38 -3z"/>
<path d="M3980 340 c0 -5 5 -10 10 -10 6 0 10 5 10 10 0 6 -4 10 -10 10 -5 0
-10 -4 -10 -10z"/>
</g>
</svg>
